<?xml version="1.0" encoding="utf-8"?>
<!-- Generator: Adobe Illustrator 25.1.0, SVG Export Plug-In . SVG Version: 6.00 Build 0)  -->
<svg version="1.1"
	 id="N" inkscape:version="0.91 r13725" sodipodi:docname="kbs_logo_nl.svg" xmlns:cc="http://creativecommons.org/ns#" xmlns:dc="http://purl.org/dc/elements/1.1/" xmlns:inkscape="http://www.inkscape.org/namespaces/inkscape" xmlns:rdf="http://www.w3.org/1999/02/22-rdf-syntax-ns#" xmlns:sodipodi="http://sodipodi.sourceforge.net/DTD/sodipodi-0.dtd" xmlns:svg="http://www.w3.org/2000/svg"
	 xmlns="http://www.w3.org/2000/svg" xmlns:xlink="http://www.w3.org/1999/xlink" x="0px" y="0px" viewBox="0 0 220 100"
	 style="enable-background:new 0 0 220 100;" xml:space="preserve">
<style type="text/css">
	.st0{fill:#FFFFFF;}
	.st1{fill-rule:evenodd;clip-rule:evenodd;fill:#FFFFFF;}
</style>
<sodipodi:namedview  bordercolor="#666666" borderopacity="1" gridtolerance="10" guidetolerance="10" id="namedview177" inkscape:current-layer="N" inkscape:cx="155.89999" inkscape:cy="63.799999" inkscape:pageopacity="0" inkscape:pageshadow="2" inkscape:window-height="480" inkscape:window-maximized="0" inkscape:window-width="640" inkscape:window-x="0" inkscape:window-y="0" inkscape:zoom="1.148172" objecttolerance="10" pagecolor="#ffffff" showgrid="false">
	</sodipodi:namedview>
<g id="g5" transform="translate(-10,0.400002)">
	<polygon id="polygon7" class="st0" points="60,9.9 60.9,9.9 60.9,71.1 60,71.1 	"/>
	<path id="path9" inkscape:connector-curvature="0" class="st1" d="M46.1,38.3c1.1,2.3,1,4.5-0.1,7c-1.2,2.6-5.3,4.6-5.8,4.8
		c3.6,0.4,7.1,2.8,8.3,6.8c1.2,4.2,0.1,8.5-2.3,11c-2.2,2.3-4.8,3.4-9.5,3.3c-3.2-0.1-4.9-0.3-8-0.3c-1.4,0-2.3,0.1-2.3,0.1l-0.2-1
		c0.9-0.2,2.2,0.1,3.1-1.2c0.4-0.5,0.6-4.3,0.7-7c0.1-3.5,0.1-8.9,0.1-8.9s0-6-0.1-9.9c0-0.6,0-1-0.1-1.6c-0.1-1.8-0.3-4.5-0.3-4.5
		c-0.1-0.7-0.1-1.3-1.1-1.8s-2.3-0.5-2.9-0.4v-0.9c3.2,0.3,6.2,0.3,9.4,0.1C39.9,33.5,44.3,34.2,46.1,38.3
		C46.1,38.3,46.1,38.3,46.1,38.3z M41.9,38.4c1.8,2.4,1.7,5.7,0.7,7.5c-1.3,2.5-3.7,3.7-6.1,3.7c-0.7,0-1.1-0.1-1.7-0.3l-0.3,1.9
		c0.9-0.3,1.4-0.3,2.4-0.3c3.3,0,5.1,1.9,6.8,4.6c2.1,3.4,1.5,8.5-0.3,10.9c-2,2.6-4.7,3.4-8,2.8c-0.8-0.1-1.1-0.2-2-0.6
		c0,0-0.2-5.8-0.2-9.5c-0.1-6.1,0-9.5,0-15.5c0-3.1,0.1-7.9,0.1-7.9c2.2-0.5,4.9-0.3,6.7,0.9C40.9,37.2,41.3,37.6,41.9,38.4
		C41.9,38.4,41.9,38.4,41.9,38.4z"/>
	<path id="path11" inkscape:connector-curvature="0" class="st0" d="M31.7,11.1c0-0.6,0.5-1.1,1.1-1.1s1.1,0.5,1.1,1.1
		s-0.5,1.1-1.1,1.1S31.7,11.7,31.7,11.1C31.7,11.1,31.7,11.1,31.7,11.1z"/>
	<path id="path13" inkscape:connector-curvature="0" class="st0" d="M29.2,11.3c0-0.6,0.5-1.1,1.1-1.1s1.1,0.5,1.1,1.1
		s-0.5,1.1-1.1,1.1S29.2,11.9,29.2,11.3L29.2,11.3z"/>
	<path id="path15" inkscape:connector-curvature="0" class="st0" d="M28.1,15.6c0-0.6,0.5-1.1,1.1-1.1s1.1,0.5,1.1,1.1
		s-0.5,1.1-1.1,1.1S28.1,16.2,28.1,15.6L28.1,15.6z"/>
	<path id="path17" inkscape:connector-curvature="0" class="st0" d="M27.5,13.2c0-0.6,0.5-1.1,1.1-1.1s1.1,0.5,1.1,1.1
		s-0.5,1.1-1.1,1.1S27.5,13.8,27.5,13.2L27.5,13.2z"/>
	<path id="path19" inkscape:connector-curvature="0" class="st0" d="M25.2,12.1c0-0.6,0.5-1.1,1.1-1.1s1.1,0.5,1.1,1.1
		s-0.5,1.1-1.1,1.1C25.7,13.3,25.2,12.7,25.2,12.1L25.2,12.1z"/>
	<path id="path21" inkscape:connector-curvature="0" class="st0" d="M22.8,13.1c0-0.6,0.5-1.1,1.1-1.1s1.1,0.5,1.1,1.1
		s-0.5,1.1-1.1,1.1S22.8,13.7,22.8,13.1L22.8,13.1z"/>
	<path id="path23" inkscape:connector-curvature="0" class="st0" d="M21.2,15.1c0-0.6,0.5-1.1,1.1-1.1s1.1,0.5,1.1,1.1
		s-0.5,1.1-1.1,1.1S21.2,15.7,21.2,15.1L21.2,15.1z"/>
	<path id="path25" inkscape:connector-curvature="0" class="st0" d="M21.4,17.7c0-0.6,0.5-1.1,1.1-1.1s1.1,0.5,1.1,1.1
		s-0.5,1.1-1.1,1.1S21.4,18.3,21.4,17.7L21.4,17.7z"/>
	<path id="path27" inkscape:connector-curvature="0" class="st0" d="M27.4,28c0-0.8,4.2-1.4,9.4-1.4s9.4,0.6,9.4,1.4
		s-4.2,1.4-9.4,1.4S27.4,28.7,27.4,28C27.4,28,27.4,28,27.4,28z"/>
	<path id="path29" inkscape:connector-curvature="0" class="st0" d="M36.8,11.7c-1,0-1.8-0.7-1.9-1.7c0.7-0.3,1.2-0.3,1.9-0.3
		c0.8,0,1.3,0.1,1.9,0.3C38.6,11,37.8,11.7,36.8,11.7L36.8,11.7z"/>
	<path id="path31" inkscape:connector-curvature="0" class="st0" d="M39.6,11.1c0-0.6,0.5-1.1,1.1-1.1s1.1,0.5,1.1,1.1
		s-0.5,1.1-1.1,1.1S39.6,11.7,39.6,11.1L39.6,11.1z"/>
	<path id="path33" inkscape:connector-curvature="0" class="st0" d="M42.1,11.3c0-0.6,0.5-1.1,1.1-1.1s1.1,0.5,1.1,1.1
		s-0.5,1.1-1.1,1.1S42.1,11.9,42.1,11.3L42.1,11.3z"/>
	<path id="path35" inkscape:connector-curvature="0" class="st0" d="M43.7,13.1c0-0.6,0.5-1.1,1.1-1.1s1.1,0.5,1.1,1.1
		s-0.5,1.1-1.1,1.1C44.3,14.2,43.7,13.7,43.7,13.1L43.7,13.1z"/>
	<path id="path37" inkscape:connector-curvature="0" class="st0" d="M46.1,12c0-0.6,0.5-1.1,1.1-1.1s1.1,0.5,1.1,1.1
		s-0.5,1.1-1.1,1.1C46.6,13.2,46.1,12.7,46.1,12L46.1,12z"/>
	<path id="path39" inkscape:connector-curvature="0" class="st0" d="M43.2,15.5c0-0.6,0.5-1.1,1.1-1.1s1.1,0.5,1.1,1.1
		s-0.5,1.1-1.1,1.1S43.2,16.1,43.2,15.5L43.2,15.5z"/>
	<path id="path41" inkscape:connector-curvature="0" class="st0" d="M48.5,13c0-0.6,0.5-1.1,1.1-1.1s1.1,0.5,1.1,1.1
		s-0.5,1.1-1.1,1.1S48.5,13.6,48.5,13L48.5,13z"/>
	<path id="path43" inkscape:connector-curvature="0" class="st0" d="M50.1,15c0-0.6,0.5-1.1,1.1-1.1s1.1,0.5,1.1,1.1
		s-0.5,1.1-1.1,1.1S50.1,15.6,50.1,15L50.1,15z"/>
	<path id="path45" inkscape:connector-curvature="0" class="st0" d="M49.9,17.5c0-0.6,0.5-1.1,1.1-1.1s1.1,0.5,1.1,1.1
		s-0.5,1.1-1.1,1.1C50.4,18.7,49.9,18.1,49.9,17.5L49.9,17.5z"/>
	<path id="path47" inkscape:connector-curvature="0" class="st1" d="M38.7,9.3c-0.1-0.6-0.5-1.1-1.1-1.4L37.1,7l0.1-0.1l0.9,0.5V5.9
		l-0.9,0.5l-0.1-0.1l0.5-0.9H36l0.5,0.9l-0.1,0.1l-0.9-0.5v1.4l0.9-0.5l0.1,0.1l-0.5,1c-0.6,0.3-1,0.8-1.1,1.4c0,0,0.1-0.3,1.4-0.3
		V8c0.2-0.1,0.3-0.1,0.5-0.1s0.3,0,0.5,0.1v1C38.6,9,38.7,9.3,38.7,9.3C38.7,9.3,38.7,9.3,38.7,9.3z"/>
	<path id="path49" inkscape:connector-curvature="0" class="st1" d="M36.8,15.9c-1,0-0.9,0.1-1.3,0.2c0-1.6-0.3-3.1-1.4-4.5
		C34,11.2,34.6,11,34.6,11c0.4,0.8,1.3,1.3,2.2,1.3s1.8-0.5,2.2-1.3c0,0,0.6,0.2,0.5,0.6c-1.1,1.4-1.4,2.9-1.4,4.5
		C37.7,16,37.8,15.9,36.8,15.9L36.8,15.9L36.8,15.9z"/>
	<path id="path51" inkscape:connector-curvature="0" class="st0" d="M36.8,16.3c0.4,0,1,0.1,1.2,0.3c0,0.6-0.3,0.6-0.5,0.8
		c-0.3,0.3-0.2,0.9,0.3,1c0.2,0,0.5-0.1,0.7-0.4c0.1-0.2,0.1-0.4,0.3-0.4c0.3-0.1,0.4,0.3,0.5,0.6c0.1,0.3-0.1,1.7-0.7,1.6
		c-0.4-0.1-0.2-0.6-0.7-0.7c-0.3-0.1-0.4-0.2-0.7,0c-0.4,0.2-0.2,1,0,1.5c0.2,0.3,0.3,0.6,0.6,0.7c1.1,0.5,1.8-1.7,1.9-2.1
		c-0.2-0.1-0.3-0.3-0.2-0.5s0.2-0.2,0.3-0.3c0.2,0,0.4,0.1,0.5,0.3c0.1,0.2,0,0.3-0.1,0.5c-0.1,0.1-0.2,0.1-0.3,0.1
		c-0.1,0.5-0.2,2,0.6,2.3c0.3,0.1,0.9-0.3,1.2-0.8s0.7-1.4,0.2-1.5c-0.2-0.1-0.4-0.1-0.6,0.1c-0.4,0.3-0.4,0.7-0.8,0.5
		c-0.2-0.1-0.1-0.6,0-1c0.1-0.5,0.3-1.1,0.7-1.1s0.3,0.7,0.8,0.8c0.2,0.1,0.4-0.1,0.5-0.2c0.2-0.2,0.1-0.4,0.1-0.6
		c0-0.3-0.3-0.4-0.2-0.7c0-0.8,2-0.5,2.2,0.3c0.1,0.4-1.2,0.7-1,1.4c0,0.2,0.4,0.2,0.6,0.1c0.4-0.1,0.4-0.5,0.8-0.5
		c0.8-0.1-0.4,2.5-0.8,2c-0.2-0.2-0.1-0.5-0.3-0.6c-0.1-0.1-0.1-0.1-0.2-0.1c-0.6-0.2-1.1,0.7-1,1.3c0,0.4,0.1,0.8,0.5,0.9
		c0.5,0.1,1.5-0.6,2.2-1.8c-0.1-0.2-0.1-0.4,0-0.5c0.1-0.2,0.2-0.2,0.4-0.2c0.1,0,0.2,0.1,0.3,0.2c0.1,0.2,0.1,0.4,0,0.5
		s-0.2,0.2-0.4,0.2c-0.3,0.5-1,2-0.1,2.2c0.5,0.1,1.3-0.5,1.5-0.6c0.4-0.4,1.2-1,0.8-1.2c-0.6-0.3-1.1,0.6-1.5,0.2
		c-0.2-0.3,0.1-0.9,0.4-1.3c0.2-0.3,0.3-0.5,0.6-0.6c0.5-0.1,0.3,0.9,0.8,1.1c1,0.3,0.3-1.5,1.2-1.6c0.4,0,0.7,0,0.8,0.3
		c0.1,0.2,0,0.6,0,0.6c-2.1,1.9-3,3.4-4,4.9c-0.3-0.9-4.2-1.6-9.4-1.6s-9.1,0.7-9.4,1.6c-0.6-1.1-1.9-3-4-4.9c0,0-0.1-0.4,0-0.6
		c0.2-0.3,0.4-0.4,0.8-0.3c0.9,0.1,0.1,1.9,1.2,1.6c0.5-0.1,0.3-1.2,0.8-1.1c0.3,0.1,0.4,0.3,0.6,0.6c0.3,0.5,0.6,1.1,0.4,1.3
		c-0.4,0.4-0.9-0.6-1.5-0.2c-0.4,0.3,0.4,0.8,0.8,1.2c0.1,0.1,1,0.8,1.5,0.6c0.8-0.3,0.1-1.7-0.1-2.2c-0.2,0-0.3,0-0.4-0.2
		s-0.1-0.4,0-0.5s0.2-0.1,0.3-0.2c0.2,0,0.3,0.1,0.4,0.2c0.1,0.2,0.1,0.3,0,0.5c0.7,1.2,1.7,1.9,2.2,1.8c0.4-0.1,0.5-0.5,0.5-0.9
		c0.1-0.7-0.4-1.6-1-1.3c-0.1,0-0.2,0.1-0.2,0.1c-0.2,0.2-0.1,0.4-0.3,0.6c-0.5,0.6-1.7-2.1-0.8-2c0.4,0.1,0.4,0.4,0.8,0.5
		C29.6,19,30,19,30,18.8c0.1-0.7-1.2-1-1-1.4c0.2-0.8,2.1-1.1,2.2-0.3c0,0.3-0.2,0.4-0.2,0.7c0,0.2,0,0.4,0.1,0.6s0.3,0.3,0.5,0.2
		c0.5-0.1,0.3-0.8,0.8-0.8c0.4,0,0.5,0.6,0.7,1.1c0.1,0.4,0.2,0.9,0,1c-0.3,0.1-0.4-0.2-0.8-0.5c-0.2-0.2-0.4-0.2-0.6-0.1
		c-0.5,0.1-0.1,1,0.2,1.5s0.9,0.9,1.2,0.8c0.8-0.3,0.7-1.8,0.6-2.3c-0.1,0-0.2-0.1-0.3-0.1c-0.1-0.1-0.1-0.3-0.1-0.5
		c0.1-0.2,0.3-0.3,0.5-0.3s0.3,0.1,0.3,0.3c0.1,0.2,0,0.4-0.2,0.5c0.1,0.4,0.8,2.5,1.9,2.1c0.3-0.2,0.5-0.4,0.6-0.7
		c0.3-0.5,0.4-1.4,0-1.5c-0.3-0.1-0.4-0.1-0.7,0c-0.5,0.2-0.3,0.7-0.7,0.7c-0.6,0.1-0.8-1.3-0.7-1.6c0.1-0.3,0.2-0.7,0.5-0.6
		c0.2,0,0.2,0.2,0.3,0.4c0.2,0.2,0.5,0.4,0.7,0.4c0.5-0.1,0.6-0.8,0.3-1c-0.2-0.2-0.5-0.3-0.5-0.8C35.7,16.4,36.4,16.3,36.8,16.3
		C36.8,16.3,36.8,16.3,36.8,16.3z"/>
	<path id="path53" inkscape:connector-curvature="0" class="st1" d="M36.8,23.4l-1.9,1.1l1.9,1.1l1.9-1.1L36.8,23.4L36.8,23.4z
		 M43.2,25.7l-2.9-0.4v-1.5l2.9,0.3V25.7L43.2,25.7z M44.4,25.3l1.1-0.3l0.8,1.2l-0.7,0.4L44.4,25.3C44.4,25.3,44.4,25.3,44.4,25.3z
		 M30.3,25.7l2.9-0.4v-1.5l-2.9,0.3V25.7L30.3,25.7z M29.1,25.3L28,25l-0.8,1.2l0.7,0.4L29.1,25.3C29.1,25.3,29.1,25.3,29.1,25.3z
		 M36.8,23.3c5.2,0,9.4,0.5,9.3,1.7c0,0.3,0.3,0.7,0.8,1.3c-0.2,0.2-0.9,0.2-0.8,0.9c-0.7-0.7-5.6-1.2-9.2-1.2
		c-3.7,0-8.5,0.4-9.2,1.2c0.1-0.6-0.6-0.6-0.8-0.9c0.5-0.7,0.8-1,0.8-1.3C27.4,23.8,31.6,23.3,36.8,23.3
		C36.8,23.3,36.8,23.3,36.8,23.3z"/>
	<polygon id="polygon55" class="st0" points="12.9,9.9 13.8,9.9 13.8,71.1 12.9,71.1 	"/>
</g>
<g id="g57" transform="translate(-10,0.400002)">
	<path id="path59" inkscape:connector-curvature="0" class="st0" d="M80,47l-5.8-6.2V47h-1.6V34.9h1.6v5.7l5.5-5.7h2.1L76,40.5
		l6.2,6.5C82.2,47,80,47,80,47z"/>
	<path id="path61" inkscape:connector-curvature="0" class="st0" d="M87.4,47.2c-2.4,0-4-1.6-4-4.2c0-2.2,1.6-4,4.1-4
		c2.4,0,4,1.6,4,4.1S89.8,47.2,87.4,47.2z M87.4,40.1c-1.6,0-2.5,1.3-2.5,2.8c0,1.7,0.8,3.2,2.7,3.2c1.6,0,2.3-1.3,2.3-2.8
		C90,41.4,89,40.1,87.4,40.1z"/>
	<path id="path63" inkscape:connector-curvature="0" class="st0" d="M99.6,47c0,0,0-4.5,0-5.2c-0.1-1.1-0.6-1.6-1.7-1.6
		c-1.2,0-1.9,0.6-1.9,0.6V47h-1.5v-7.9H96V40c0.4-0.3,1.3-1,2.6-1c1.4,0,2.4,0.8,2.5,2.5c0.1,1.2,0,5.6,0,5.6L99.6,47L99.6,47z"/>
	<path id="path65" inkscape:connector-curvature="0" class="st0" d="M105.5,36.9c-0.5,0-1-0.4-1-1c0-0.5,0.4-1,1-1c0.5,0,1,0.4,1,1
		C106.5,36.4,106.1,36.9,105.5,36.9z M104.8,47v-7.9h1.5V47H104.8z"/>
	<path id="path67" inkscape:connector-curvature="0" class="st0" d="M115.2,47c0,0,0-4.5,0-5.2c-0.1-1.1-0.6-1.6-1.7-1.6
		c-1.2,0-1.9,0.6-1.9,0.6V47h-1.5v-7.9h1.5V40c0.4-0.3,1.3-1,2.6-1c1.4,0,2.4,0.8,2.5,2.5c0.1,1.2,0,5.6,0,5.6L115.2,47L115.2,47z"
		/>
	<path id="path69" inkscape:connector-curvature="0" class="st0" d="M122.8,52.2c-2.3,0-3.6-1-3.6-2.3c0-1.5,1.8-2.3,1.8-2.3
		s-1.2-0.4-1.2-1.4c0-0.7,0.9-1.3,1.5-1.5c-0.8-0.4-1.5-1.3-1.5-2.6s1-3.1,3.3-3.1c0.7,0,1.3,0.1,1.7,0.4h2.5v0.9h-1.4
		c0,0,0.5,0.7,0.5,1.7c0,1.7-1.3,3.1-3.3,3.1c-0.3,0-0.8-0.1-0.8-0.1c-0.4,0.1-1,0.4-1,0.8c0,0.5,0.9,0.6,2.7,0.8
		c2.4,0.3,3.4,0.9,3.4,2.3C127.3,50.7,125.4,52.2,122.8,52.2z M123.8,48c-0.8-0.1-1.7-0.2-1.7-0.2s-1.5,0.6-1.5,1.9
		c0,0.8,1,1.5,2.6,1.5c1.5,0,2.6-0.8,2.6-1.8C125.9,48.8,125.8,48.3,123.8,48z M123,40c-1,0-1.8,0.7-1.8,2s0.6,2.2,1.8,2.2
		c1.2,0,1.8-0.8,1.8-2C124.9,40.8,124.2,40,123,40z"/>
	<path id="path71" inkscape:connector-curvature="0" class="st0" d="M76,71.1c-1.3,0-3.4,0-3.4,0V58.9c0,0,2,0,3.2,0
		c2.3,0,4,0.8,4,2.9c0,1.9-1.8,2.7-1.8,2.7s2.7,0.5,2.7,2.9C80.7,70.1,78.5,71.1,76,71.1z M75.6,60c-0.6,0-1.4,0-1.4,0v4.1
		c0,0,0.4,0.1,1.3,0.1c1.9,0,2.6-1,2.6-2.2C78.1,60.7,77.2,60,75.6,60z M77.9,65.8c-0.7-0.5-1.5-0.5-2.5-0.5c-0.9,0-1.2,0-1.2,0v4.6
		c0,0,0.5,0.1,1.9,0.1c1.5,0,2.9-0.6,2.9-2.3C78.9,66.7,78.5,66.1,77.9,65.8z"/>
	<path id="path73" inkscape:connector-curvature="0" class="st0" d="M87.3,71.2c-2.4,0-4-1.6-4-4.2c0-2.2,1.6-4,4.1-4
		c2.4,0,4,1.6,4,4.1S89.7,71.2,87.3,71.2z M87.3,64.1c-1.6,0-2.5,1.3-2.5,2.8c0,1.7,0.8,3.2,2.7,3.2c1.6,0,2.3-1.3,2.3-2.8
		C89.9,65.4,88.9,64.1,87.3,64.1z"/>
	<path id="path75" inkscape:connector-curvature="0" class="st0" d="M99.4,71v-0.8c-0.4,0.3-1.3,0.9-2.6,0.9c-1.4,0-2.3-0.7-2.4-2.4
		c-0.1-1.2,0-5.5,0-5.5h1.5c0,0,0,4.5,0,5.2c0.1,1.1,0.5,1.6,1.7,1.6s1.9-0.7,1.9-0.7v-6.1h1.5V71H99.4z"/>
	<path id="path77" inkscape:connector-curvature="0" class="st0" d="M109.6,71v-0.7c-0.4,0.3-1.1,0.8-2.4,0.8
		c-1.9,0-3.4-1.6-3.4-3.9c0-2.5,1.7-4.3,4.1-4.3c1,0,1.6,0.3,1.6,0.3v-5h1.5V71C111,71,109.6,71,109.6,71z M109.6,64.5
		c0,0-0.6-0.4-1.6-0.4c-1.3,0-2.6,0.7-2.6,3c0,1.9,0.9,3,2.6,3c1,0,1.6-0.6,1.6-0.6V64.5z"/>
	<path id="path79" inkscape:connector-curvature="0" class="st0" d="M117.8,71.2c-1.9,0-3.7-1.3-3.7-4.1c0-2.4,1.5-4.1,3.7-4.1
		c2.1,0,3.1,1.6,3.1,3.4v0.4h-5.4V67c0,1.9,1.1,3,2.8,3c1.2,0,2.1-0.6,2.5-1l0.4,1C120.5,70.7,119.2,71.2,117.8,71.2z M117.5,64
		c-1.5,0-1.9,1.4-1.9,1.9h3.7C119.3,64.9,118.9,64,117.5,64z"/>
	<path id="path81" inkscape:connector-curvature="0" class="st0" d="M131.7,71.2h-1.1l-2-6.1l-2.1,6.1h-1.1l-2.7-8h1.6l1.8,5.8
		l1.9-5.8h1.4l1.8,5.8l1.8-5.8h1.5L131.7,71.2z"/>
	<path id="path83" inkscape:connector-curvature="0" class="st0" d="M138.7,59.9c0-0.5-0.4-1-1-1c-0.5,0-1,0.4-1,1c0,0.5,0.4,1,1,1
		S138.7,60.4,138.7,59.9z M138.5,71v-7.9H137V71H138.5z"/>
	<path id="path85" inkscape:connector-curvature="0" class="st0" d="M143.7,70.8c-0.1,2-0.3,3.3-0.8,4.1c-0.5,0.9-1.4,1.2-2.2,1.2
		c-0.4,0-0.7,0-0.7,0l-0.2-1h0.5c0.4,0,1-0.1,1.4-0.7c0.3-0.5,0.5-1.4,0.5-4.2c0.1-2.4,0-7.1,0-7.1h1.5
		C143.8,63.2,143.8,67.7,143.7,70.8z M143.1,60.9c-0.5,0-1-0.4-1-1c0-0.5,0.4-1,1-1c0.5,0,1,0.4,1,1C144,60.4,143.6,60.9,143.1,60.9
		z"/>
	<path id="path87" inkscape:connector-curvature="0" class="st0" d="M152.7,71c0,0,0-4.5,0-5.2c-0.1-1.1-0.6-1.6-1.7-1.6
		c-1.2,0-1.9,0.6-1.9,0.6V71h-1.5v-7.9h1.5V64c0.4-0.3,1.3-1,2.6-1c1.4,0,2.4,0.8,2.5,2.5c0.1,1.2,0,5.6,0,5.6L152.7,71L152.7,71z"
		/>
	<path id="path89" inkscape:connector-curvature="0" class="st0" d="M159.6,71.2c-1.3,0-2.4-0.4-2.4-0.4v-1.4c0,0,1.2,0.7,2.5,0.7
		c1,0,1.5-0.3,1.5-1c0-0.6-0.6-1-1.7-1.4c-1.2-0.5-2.1-1-2.1-2.4c0-1.5,1.3-2.2,2.7-2.2c1.2,0,2,0.3,2,0.3v1.2c0,0-0.8-0.5-2-0.5
		c-0.9,0-1.3,0.4-1.3,1c0,0.7,0.9,1.1,1.8,1.5c1.1,0.5,2,1,2,2.2C162.6,70.4,161.2,71.2,159.6,71.2z"/>
	<path id="path91" inkscape:connector-curvature="0" class="st0" d="M167.5,71.2c-0.9,0-1.4-0.4-1.6-1c-0.2-0.6-0.2-1.5-0.2-2.3
		c0-1.6,0.1-3.4,0.1-3.4h-1.2v-1.1h1.2l0.5-1.9h1v1.9h2.3v1h-2.3c0,0,0,1.5-0.1,2.9c0,1,0,1.6,0.1,2s0.4,0.6,0.8,0.6
		c0.7,0,1.3-0.5,1.6-0.7l0.2,1C169.8,70.2,168.7,71.2,167.5,71.2L167.5,71.2z"/>
	<path id="path93" inkscape:connector-curvature="0" class="st0" d="M174.1,59.9c0-0.5-0.4-1-1-1c-0.5,0-1,0.4-1,1c0,0.5,0.4,1,1,1
		S174.1,60.4,174.1,59.9z M173.9,71v-7.9h-1.5V71H173.9z"/>
	<path id="path95" inkscape:connector-curvature="0" class="st0" d="M180.8,71.2c-2.4,0-3.9-1.6-3.9-4.1c0-2.2,1.3-4.1,4.2-4.1
		c1.4,0,2.3,0.5,2.3,0.5l-0.3,1.2c0,0-1.1-0.6-2.3-0.6c-1.4,0-2.4,1-2.4,2.7c0,2.1,1.2,3.2,2.8,3.2c1.5,0,2.4-1,2.4-1l0.3,1
		C183.3,70.6,182.3,71.2,180.8,71.2z"/>
	<path id="path97" inkscape:connector-curvature="0" class="st0" d="M191.4,71c0,0,0-4.5,0-5.2c-0.1-1.1-0.6-1.7-1.7-1.7
		c-1.2,0-1.9,0.6-1.9,0.6V71h-1.5V58.3h1.5V64c0.3-0.2,1.3-0.9,2.6-0.9c1.4,0,2.4,0.8,2.5,2.5c0.1,1.2,0,5.6,0,5.6h-1.5L191.4,71z"
		/>
	<path id="path99" inkscape:connector-curvature="0" class="st0" d="M198.6,71.2c-0.9,0-1.4-0.4-1.6-1c-0.2-0.6-0.2-1.5-0.2-2.3
		c0-1.6,0.1-3.4,0.1-3.4h-1.2v-1.1h1.2l0.5-1.9h1v1.9h2.3v1h-2.3c0,0,0,1.5-0.1,2.9c0,1,0,1.6,0.1,2s0.4,0.6,0.8,0.6
		c0.7,0,1.3-0.5,1.6-0.7l0.2,1C200.9,70.2,199.8,71.2,198.6,71.2L198.6,71.2z"/>
	<path id="path101" inkscape:connector-curvature="0" class="st0" d="M204.2,60.9c-0.5,0-1-0.4-1-1c0-0.5,0.4-1,1-1c0.5,0,1,0.4,1,1
		C205.2,60.4,204.8,60.9,204.2,60.9z M203.5,71v-7.9h1.5V71H203.5z"/>
	<path id="path103" inkscape:connector-curvature="0" class="st0" d="M213.9,71c0,0,0-4.5,0-5.2c-0.1-1.1-0.6-1.6-1.7-1.6
		c-1.2,0-1.9,0.6-1.9,0.6V71h-1.5v-7.9h1.5V64c0.4-0.3,1.3-1,2.6-1c1.4,0,2.4,0.8,2.5,2.5c0.1,1.2,0,5.6,0,5.6L213.9,71L213.9,71z"
		/>
	<path id="path105" inkscape:connector-curvature="0" class="st0" d="M221.5,76.2c-2.3,0-3.6-1-3.6-2.3c0-1.5,1.8-2.3,1.8-2.3
		s-1.2-0.4-1.2-1.4c0-0.7,0.9-1.3,1.5-1.5c-0.8-0.4-1.5-1.3-1.5-2.6c0-1.3,1-3.1,3.3-3.1c0.7,0,1.3,0.1,1.7,0.4h2.5v0.9h-1.4
		c0,0,0.5,0.7,0.5,1.7c0,1.7-1.3,3.1-3.3,3.1c-0.3,0-0.8-0.1-0.8-0.1c-0.4,0.1-1,0.4-1,0.8c0,0.5,0.9,0.6,2.7,0.8
		c2.4,0.3,3.4,0.9,3.4,2.3C226,74.7,224.1,76.2,221.5,76.2L221.5,76.2z M222.5,72c-0.8-0.1-1.7-0.2-1.7-0.2s-1.5,0.6-1.5,1.9
		c0,0.8,1,1.5,2.6,1.5c1.5,0,2.6-0.8,2.6-1.8C224.6,72.8,224.5,72.3,222.5,72L222.5,72z M221.7,64c-1,0-1.8,0.7-1.8,2
		s0.6,2.2,1.8,2.2s1.8-0.8,1.8-2C223.6,64.8,222.9,64,221.7,64z"/>
</g>
<g id="g107" transform="translate(-10,0.400002)">
	<path id="path109" inkscape:connector-curvature="0" class="st0" d="M19,84.2c0,0-0.7-0.3-1.8-0.3c-1.1,0-1.8,0.4-1.8,1.3
		c0,0.6,0.5,1.1,1.6,1.7c1.2,0.7,1.9,1.3,1.9,2.5c0,1.7-1.4,2.5-3.1,2.5c-1.5,0-2.5-0.5-2.5-0.5l0.1-1.1c0,0,1,0.7,2.5,0.7
		c1.2,0,2-0.5,2-1.5c0-0.8-0.5-1.2-1.6-1.8c-1.2-0.6-1.9-1.3-1.9-2.5c0-1.5,1.1-2.3,2.7-2.3c1.2,0,2,0.3,2,0.3S19,84.2,19,84.2z"/>
	<path id="path111" inkscape:connector-curvature="0" class="st0" d="M24.3,91.8c-0.4,0-0.6-0.1-0.6-0.1L24,90c0,0-0.5,0.8-1.3,1.4
		c-0.5,0.3-0.9,0.5-1.4,0.5c-0.7,0-0.9-0.6-0.9-1.5c0-1.3,0.5-3,1.6-3.9c0.5-0.4,1-0.5,1.6-0.5c0.8,0,1.2,0.4,1.2,0.4L25,86h0.6
		c0,0-0.3,1.3-0.6,2.7c-0.3,1.6-0.4,2.3-0.4,2.3c0.4,0,1-0.3,1-0.3l0.3,0.6C26,91.3,25.3,91.8,24.3,91.8z M23.4,86.7
		c-0.4,0-0.8,0.2-1.1,0.5c-0.6,0.6-1,2-1,3.1c0,0.6,0.2,0.7,0.5,0.7c0.8,0,2.2-1.5,2.5-2.5l0.3-1.5C24.4,86.9,24,86.7,23.4,86.7z"/>
	<path id="path113" inkscape:connector-curvature="0" class="st0" d="M34.2,91.7c-0.4,0-0.6-0.1-0.6-0.1c0.3-2,0.7-3.9,0.7-4.4
		c0-0.3,0-0.4-0.3-0.4c-1,0-2.2,1.6-2.4,2.2c-0.2,1-0.4,2.1-0.5,2.7h-1c0.3-2,0.7-3.9,0.7-4.5c0-0.3,0-0.4-0.3-0.4
		c-0.9,0-2.2,1.4-2.4,2.4c-0.1,0.4-0.5,2.5-0.5,2.5h-0.9c0.1-0.9,0.8-4.5,1-5.7h1c-0.1,0.7-0.3,1.6-0.3,1.6s1-1.6,2.6-1.6
		c0.6,0,0.8,0.4,0.8,0.9c0,0.2-0.1,0.8-0.1,0.8s1.1-1.7,2.6-1.7c0.6,0,0.9,0.4,0.9,0.9s-0.4,2.6-0.6,4c0.4,0,1-0.3,1-0.3l0.3,0.6
		C35.9,91.2,35.3,91.7,34.2,91.7z"/>
	<path id="path115" inkscape:connector-curvature="0" class="st0" d="M39.5,89c-0.8,0.3-1.7,0.4-1.7,0.4s0,0.2,0,0.4
		c0,0.7,0.3,1.2,1,1.2c1.2,0,2.2-1,2.2-1l0.4,0.7c0,0-1.2,1.2-2.8,1.2c-1,0-1.8-0.5-1.8-1.9c0-1.9,1-4,3.1-4c0.9,0,1.5,0.4,1.5,1.2
		C41.3,88.1,40.7,88.6,39.5,89z M39.7,86.7c-0.7,0-1.5,0.6-1.8,2c0,0,0.5-0.1,1.3-0.3c0.7-0.2,1.2-0.5,1.2-1.1
		C40.4,86.8,40,86.7,39.7,86.7z"/>
	<path id="path117" inkscape:connector-curvature="0" class="st0" d="M46.2,91.7c-0.4,0-0.6-0.1-0.6-0.1c0.3-2,0.7-3.9,0.7-4.4
		c0-0.3,0-0.4-0.3-0.4c-0.9,0-2.2,1.4-2.4,2.4c-0.1,0.4-0.5,2.5-0.5,2.5h-0.9c0.1-0.9,0.8-4.5,1-5.7h1c-0.1,0.7-0.3,1.6-0.3,1.6
		s1.1-1.8,2.7-1.8c0.6,0,0.9,0.4,0.9,0.9s-0.4,2.6-0.6,4c0.4,0,1-0.3,1-0.3l0.3,0.6C48,91.2,47.3,91.7,46.2,91.7z"/>
	<path id="path119" inkscape:connector-curvature="0" class="st0" d="M57.8,89.5c-0.6,0.8-1.8,2.3-1.8,2.3L55,88
		c0,0-0.1,0.6-0.8,1.9c-0.6,1.1-1.4,2-1.4,2l-1.5-5.8h0.9l1,4c0,0,1.4-2.3,1.4-4h0.7l1,4c0,0,0.4-0.5,0.8-1c0.3-0.5,0.6-1,0.6-1.7
		c0-0.6-0.3-1.2-0.3-1.2l0.9-0.3c0,0,0.4,0.6,0.4,1.5C58.7,88.2,58.3,88.9,57.8,89.5z"/>
	<path id="path121" inkscape:connector-curvature="0" class="st0" d="M62.2,89c-0.8,0.3-1.7,0.4-1.7,0.4s0,0.2,0,0.4
		c0,0.7,0.3,1.2,1,1.2c1.2,0,2.2-1,2.2-1l0.4,0.7c0,0-1.2,1.2-2.8,1.2c-1,0-1.8-0.5-1.8-1.9c0-1.9,1-4,3.1-4c0.9,0,1.5,0.4,1.5,1.2
		C64,88.1,63.4,88.6,62.2,89z M62.4,86.7c-0.7,0-1.5,0.6-1.8,2c0,0,0.5-0.1,1.3-0.3c0.7-0.2,1.2-0.5,1.2-1.1
		C63.1,86.8,62.7,86.7,62.4,86.7z"/>
	<path id="path123" inkscape:connector-curvature="0" class="st0" d="M68.9,87.3c0,0-0.3-0.4-0.7-0.4c-0.7,0-1.4,0.9-1.9,2.5
		c-0.1,0.3-0.4,2.3-0.4,2.3H65c0.1-0.9,0.8-4.2,0.9-5.7h1c-0.1,0.7-0.3,1.7-0.3,1.7c0.5-1.1,1.3-1.8,2-1.8c0.6,0,0.9,0.5,0.9,0.5
		L68.9,87.3z"/>
	<path id="path125" inkscape:connector-curvature="0" class="st0" d="M73.9,91.8c-0.2,0-0.4,0-0.7-0.2c-0.3-0.2-0.6-0.5-1.2-1.1
		c-0.8-0.8-1-1.1-1.2-1.2c-0.1,0.6-0.4,2.4-0.4,2.4h-0.9c0.1-0.4,0.4-2.2,0.8-4.1c0.4-2.1,0.9-5.1,0.9-5.1H72l-1,5.2
		c0,0,1.1-1.7,2.5-1.7c0.7,0,1.1,0.5,1.1,1.2c0,1.6-2,2.2-2.5,2.3c0,0,0.4,0.4,0.8,0.8c0.6,0.6,0.8,0.7,1.2,0.7
		c0.3,0,0.6-0.2,0.6-0.2l0.2,0.6C75.1,91.4,74.7,91.8,73.9,91.8L73.9,91.8z M73.2,86.8c-0.6,0-1.7,1-2.2,2c0,0,0.4,0.1,0.6,0.1
		c1.1,0,2.1-0.8,2.1-1.5C73.6,87,73.4,86.8,73.2,86.8z"/>
	<path id="path127" inkscape:connector-curvature="0" class="st0" d="M78.5,89c-0.8,0.3-1.7,0.4-1.7,0.4s0,0.2,0,0.4
		c0,0.7,0.3,1.2,1,1.2c1.2,0,2.2-1,2.2-1l0.4,0.7c0,0-1.2,1.2-2.8,1.2c-1,0-1.8-0.5-1.8-1.9c0-1.9,1-4,3.1-4c0.9,0,1.5,0.4,1.5,1.2
		C80.4,88.1,79.7,88.6,78.5,89z M78.7,86.7c-0.7,0-1.5,0.6-1.8,2c0,0,0.5-0.1,1.3-0.3c0.7-0.2,1.2-0.5,1.2-1.1
		C79.4,86.8,79,86.7,78.7,86.7z"/>
	<path id="path129" inkscape:connector-curvature="0" class="st0" d="M85.3,91.7c-0.4,0-0.6-0.1-0.6-0.1c0.3-2,0.7-3.9,0.7-4.4
		c0-0.3,0-0.4-0.3-0.4c-0.9,0-2.2,1.4-2.4,2.4c-0.1,0.4-0.5,2.5-0.5,2.5h-0.9c0.1-0.9,0.8-4.5,1-5.7h1c-0.1,0.7-0.3,1.6-0.3,1.6
		s1.1-1.8,2.7-1.8c0.6,0,0.9,0.4,0.9,0.9s-0.4,2.6-0.6,4c0.4,0,1-0.3,1-0.3l0.3,0.6C87,91.2,86.4,91.7,85.3,91.7z"/>
	<path id="path131" inkscape:connector-curvature="0" class="st0" d="M94.3,91.8c-0.4,0-0.6-0.1-0.6-0.1L94,90c0,0-0.5,0.8-1.3,1.4
		c-0.5,0.3-0.9,0.5-1.4,0.5c-0.7,0-0.9-0.6-0.9-1.5c0-1.3,0.5-3,1.6-3.9c0.5-0.4,1-0.5,1.6-0.5c0.8,0,1.2,0.4,1.2,0.4L95,86h0.6
		c0,0-0.3,1.3-0.6,2.7c-0.3,1.6-0.4,2.3-0.4,2.3c0.4,0,1-0.3,1-0.3l0.3,0.6C96.1,91.3,95.4,91.8,94.3,91.8z M93.5,86.7
		c-0.4,0-0.8,0.2-1.1,0.5c-0.6,0.6-1,2-1,3.1c0,0.6,0.2,0.7,0.5,0.7c0.8,0,2.2-1.5,2.5-2.5l0.3-1.5C94.4,86.9,94.1,86.7,93.5,86.7z"
		/>
	<path id="path133" inkscape:connector-curvature="0" class="st0" d="M100.9,91.8c-0.4,0-0.6-0.1-0.6-0.1l0.3-1.7
		c0,0-0.5,0.8-1.3,1.4c-0.5,0.3-0.9,0.5-1.4,0.5c-0.7,0-0.9-0.6-0.9-1.5c0-1.3,0.5-3,1.6-3.9c0.5-0.4,1-0.5,1.6-0.5
		c0.8,0,1.2,0.4,1.2,0.4l0.2-0.4h0.6c0,0-0.3,1.3-0.6,2.7c-0.3,1.6-0.4,2.3-0.4,2.3c0.4,0,1-0.3,1-0.3l0.3,0.6
		C102.7,91.3,102,91.8,100.9,91.8z M100.1,86.7c-0.4,0-0.8,0.2-1.1,0.5c-0.6,0.6-1,2-1,3.1c0,0.6,0.2,0.7,0.5,0.7
		c0.8,0,2.2-1.5,2.5-2.5l0.3-1.5C101,86.9,100.7,86.7,100.1,86.7z"/>
	<path id="path135" inkscape:connector-curvature="0" class="st0" d="M107.4,91.7c-0.4,0-0.6-0.1-0.6-0.1c0.3-2,0.7-3.9,0.7-4.4
		c0-0.3,0-0.4-0.3-0.4c-0.9,0-2.2,1.4-2.4,2.4c-0.1,0.4-0.5,2.5-0.5,2.5h-0.9c0.1-0.9,0.8-4.5,1-5.7h1c-0.1,0.7-0.3,1.6-0.3,1.6
		s1.1-1.8,2.7-1.8c0.6,0,0.9,0.4,0.9,0.9s-0.4,2.6-0.6,4c0.4,0,1-0.3,1-0.3l0.3,0.6C109.2,91.2,108.5,91.7,107.4,91.7z"/>
	<path id="path137" inkscape:connector-curvature="0" class="st0" d="M115.2,89c-0.8,0.3-1.7,0.4-1.7,0.4s0,0.2,0,0.4
		c0,0.7,0.3,1.2,1,1.2c1.2,0,2.2-1,2.2-1l0.4,0.7c0,0-1.2,1.2-2.8,1.2c-1,0-1.8-0.5-1.8-1.9c0-1.9,1-4,3.1-4c0.9,0,1.5,0.4,1.5,1.2
		C117.1,88.1,116.4,88.6,115.2,89z M115.4,86.7c-0.7,0-1.5,0.6-1.8,2c0,0,0.5-0.1,1.3-0.3c0.7-0.2,1.2-0.5,1.2-1.1
		C116.1,86.8,115.8,86.7,115.4,86.7z"/>
	<path id="path139" inkscape:connector-curvature="0" class="st0" d="M120.6,89c-0.8,0.3-1.7,0.4-1.7,0.4s0,0.2,0,0.4
		c0,0.7,0.3,1.2,1,1.2c1.2,0,2.2-1,2.2-1l0.4,0.7c0,0-1.2,1.2-2.8,1.2c-1,0-1.8-0.5-1.8-1.9c0-1.9,1-4,3.1-4c0.9,0,1.5,0.4,1.5,1.2
		C122.4,88.1,121.8,88.6,120.6,89z M120.8,86.7c-0.7,0-1.5,0.6-1.8,2c0,0,0.5-0.1,1.3-0.3c0.7-0.2,1.2-0.5,1.2-1.1
		C121.5,86.8,121.1,86.7,120.8,86.7z"/>
	<path id="path141" inkscape:connector-curvature="0" class="st0" d="M127.4,91.7c-0.4,0-0.6-0.1-0.6-0.1c0.3-2,0.7-3.9,0.7-4.4
		c0-0.3,0-0.4-0.3-0.4c-0.9,0-2.2,1.4-2.4,2.4c-0.1,0.4-0.5,2.5-0.5,2.5h-0.9c0.1-0.9,0.8-4.5,1-5.7h1c-0.1,0.7-0.3,1.6-0.3,1.6
		s1.1-1.8,2.7-1.8c0.6,0,0.9,0.4,0.9,0.9s-0.4,2.6-0.6,4c0.4,0,1-0.3,1-0.3l0.3,0.6C129.1,91.2,128.4,91.7,127.4,91.7L127.4,91.7z"
		/>
	<path id="path143" inkscape:connector-curvature="0" class="st0" d="M134.6,91.9c-1.3,0-2.1-0.6-2.1-0.6l1.5-8.7h0.9l-0.9,4.9
		c0.2-0.4,1.1-1.4,2.3-1.4c0.9,0,1.5,0.6,1.5,2C137.8,90.1,136.8,91.9,134.6,91.9z M136.1,86.8c-1,0-2,1.1-2.4,2.4l-0.3,1.5
		c0,0,0.5,0.4,1.3,0.4c1.4,0,2.1-1.3,2.1-3.1C136.8,87.2,136.6,86.8,136.1,86.8L136.1,86.8z"/>
	<path id="path145" inkscape:connector-curvature="0" class="st0" d="M141.6,89c-0.8,0.3-1.7,0.4-1.7,0.4s0,0.2,0,0.4
		c0,0.7,0.3,1.2,1,1.2c1.2,0,2.2-1,2.2-1l0.4,0.7c0,0-1.2,1.2-2.8,1.2c-1,0-1.8-0.5-1.8-1.9c0-1.9,1-4,3.1-4c0.9,0,1.5,0.4,1.5,1.2
		C143.5,88.1,142.8,88.6,141.6,89z M141.8,86.7c-0.7,0-1.5,0.6-1.8,2c0,0,0.5-0.1,1.3-0.3c0.7-0.2,1.2-0.5,1.2-1.1
		C142.5,86.8,142.2,86.7,141.8,86.7z"/>
	<path id="path147" inkscape:connector-curvature="0" class="st0" d="M148,87h-1.7c0,0-0.2,1-0.4,2.1c-0.1,0.6-0.2,1.1-0.2,1.4
		c0,0.5,0.2,0.6,0.5,0.6c0.5,0,1-0.4,1.2-0.6v0.8c0,0-0.7,0.6-1.7,0.6c-0.8,0-1.1-0.5-1.1-1.1c0-0.4,0.2-1.5,0.3-2.2
		c0.1-0.9,0.3-1.6,0.3-1.6h-0.9l0.1-0.8h0.9l0.5-1.4h0.7l-0.2,1.5h1.7L148,87L148,87z"/>
	<path id="path149" inkscape:connector-curvature="0" class="st0" d="M151.2,89c-0.8,0.3-1.7,0.4-1.7,0.4s0,0.2,0,0.4
		c0,0.7,0.3,1.2,1,1.2c1.2,0,2.2-1,2.2-1l0.4,0.7c0,0-1.2,1.2-2.8,1.2c-1,0-1.8-0.5-1.8-1.9c0-1.9,1-4,3.1-4c0.9,0,1.5,0.4,1.5,1.2
		C153.1,88.1,152.4,88.6,151.2,89z M151.4,86.7c-0.7,0-1.5,0.6-1.8,2c0,0,0.5-0.1,1.3-0.3c0.7-0.2,1.2-0.5,1.2-1.1
		C152.1,86.8,151.8,86.7,151.4,86.7z"/>
	<path id="path151" inkscape:connector-curvature="0" class="st0" d="M158,87.3c0,0-0.3-0.4-0.7-0.4c-0.7,0-1.4,0.9-1.9,2.5
		c-0.1,0.3-0.4,2.3-0.4,2.3h-1c0.1-0.9,0.8-4.2,0.9-5.7h1c-0.1,0.7-0.3,1.7-0.3,1.7c0.5-1.1,1.3-1.8,2-1.8c0.6,0,0.9,0.5,0.9,0.5
		L158,87.3z"/>
	<path id="path153" inkscape:connector-curvature="0" class="st0" d="M161.1,89c-0.8,0.3-1.7,0.4-1.7,0.4s0,0.2,0,0.4
		c0,0.7,0.3,1.2,1,1.2c1.2,0,2.2-1,2.2-1l0.4,0.7c0,0-1.2,1.2-2.8,1.2c-1,0-1.8-0.5-1.8-1.9c0-1.9,1-4,3.1-4c0.9,0,1.5,0.4,1.5,1.2
		C163,88.1,162.3,88.6,161.1,89z M161.3,86.7c-0.7,0-1.5,0.6-1.8,2c0,0,0.5-0.1,1.3-0.3c0.7-0.2,1.2-0.5,1.2-1.1
		C162,86.8,161.6,86.7,161.3,86.7z"/>
	<path id="path155" inkscape:connector-curvature="0" class="st0" d="M170,87c0,0-0.5-0.3-1.3-0.3c-0.7,0-1.1,0.3-1.1,0.7
		c0,0.5,0.3,0.7,1,1.1c0.4,0.3,1.2,0.8,1.2,1.6c0,1.2-0.8,1.7-2.1,1.7c-1,0-1.7-0.5-1.7-0.5l0.1-0.9c0,0,0.8,0.7,1.7,0.7
		c0.7,0,1.1-0.2,1.1-0.7c0-0.4-0.3-0.8-1-1.2c-0.7-0.4-1.2-0.9-1.2-1.6c0-1.1,0.9-1.7,2-1.7c0.9,0,1.3,0.2,1.3,0.2S170,87,170,87z"
		/>
	<path id="path157" inkscape:connector-curvature="0" class="st0" d="M174.9,91.8c-0.4,0-0.6-0.1-0.6-0.1l0.3-1.7
		c0,0-0.5,0.8-1.3,1.4c-0.5,0.3-0.9,0.5-1.4,0.5c-0.7,0-0.9-0.6-0.9-1.5c0-1.3,0.5-3,1.6-3.9c0.5-0.4,1-0.5,1.6-0.5
		c0.8,0,1.2,0.4,1.2,0.4l0.2-0.4h0.6c0,0-0.3,1.3-0.6,2.7c-0.3,1.6-0.4,2.3-0.4,2.3c0.4,0,1-0.3,1-0.3l0.3,0.6
		C176.7,91.3,176,91.8,174.9,91.8L174.9,91.8z M174.1,86.7c-0.4,0-0.8,0.2-1.1,0.5c-0.6,0.6-1,2-1,3.1c0,0.6,0.2,0.7,0.5,0.7
		c0.8,0,2.2-1.5,2.5-2.5l0.3-1.5C175,86.9,174.7,86.7,174.1,86.7z"/>
	<path id="path159" inkscape:connector-curvature="0" class="st0" d="M184.9,91.7c-0.4,0-0.6-0.1-0.6-0.1c0.3-2,0.7-3.9,0.7-4.4
		c0-0.3,0-0.4-0.3-0.4c-1,0-2.2,1.6-2.4,2.2c-0.2,1-0.4,2.1-0.5,2.7h-1c0.3-2,0.7-3.9,0.7-4.5c0-0.3,0-0.4-0.3-0.4
		c-0.9,0-2.2,1.4-2.4,2.4c-0.1,0.4-0.5,2.5-0.5,2.5h-0.9c0.1-0.9,0.8-4.5,1-5.7h1c-0.1,0.7-0.3,1.6-0.3,1.6s1.1-1.8,2.7-1.8
		c0.6,0,0.8,0.4,0.8,0.9c0,0.2-0.1,0.8-0.1,0.8s1.1-1.7,2.6-1.7c0.6,0,0.9,0.4,0.9,0.9s-0.4,2.6-0.6,4c0.4,0,1-0.3,1-0.3l0.3,0.6
		C186.6,91.2,185.9,91.7,184.9,91.7L184.9,91.7z"/>
	<path id="path161" inkscape:connector-curvature="0" class="st0" d="M190.1,89c-0.8,0.3-1.7,0.4-1.7,0.4s0,0.2,0,0.4
		c0,0.7,0.3,1.2,1,1.2c1.2,0,2.2-1,2.2-1l0.4,0.7c0,0-1.2,1.2-2.8,1.2c-1,0-1.8-0.5-1.8-1.9c0-1.9,1-4,3.1-4c0.9,0,1.5,0.4,1.5,1.2
		C192,88.1,191.3,88.6,190.1,89z M190.3,86.7c-0.7,0-1.5,0.6-1.8,2c0,0,0.5-0.1,1.3-0.3c0.7-0.2,1.2-0.5,1.2-1.1
		C191,86.8,190.7,86.7,190.3,86.7z"/>
	<path id="path163" inkscape:connector-curvature="0" class="st0" d="M196.9,91.7c-0.4,0-0.6-0.1-0.6-0.1c0.3-2,0.7-3.9,0.7-4.4
		c0-0.3,0-0.4-0.3-0.4c-0.9,0-2.2,1.4-2.4,2.4c-0.1,0.4-0.5,2.5-0.5,2.5h-0.9c0.1-0.9,0.8-4.5,1-5.7h1c-0.1,0.7-0.3,1.6-0.3,1.6
		s1.1-1.8,2.7-1.8c0.6,0,0.9,0.4,0.9,0.9s-0.4,2.6-0.7,4c0.4,0,1-0.3,1-0.3l0.3,0.6C198.7,91.2,198,91.7,196.9,91.7z"/>
	<path id="path165" inkscape:connector-curvature="0" class="st0" d="M200.4,91.7h-0.9l1.5-9.2h0.9L200.4,91.7z"/>
	<path id="path167" inkscape:connector-curvature="0" class="st0" d="M205,89c-0.8,0.3-1.7,0.4-1.7,0.4s0,0.2,0,0.4
		c0,0.7,0.3,1.2,1,1.2c1.2,0,2.2-1,2.2-1l0.4,0.7c0,0-1.2,1.2-2.8,1.2c-1,0-1.8-0.5-1.8-1.9c0-1.9,1-4,3.1-4c0.9,0,1.5,0.4,1.5,1.2
		C206.9,88.1,206.2,88.6,205,89z M205.2,86.7c-0.7,0-1.5,0.6-1.8,2c0,0,0.5-0.1,1.3-0.3c0.7-0.2,1.2-0.5,1.2-1.1
		C205.9,86.8,205.5,86.7,205.2,86.7z"/>
	<path id="path169" inkscape:connector-curvature="0" class="st0" d="M211.9,89.5c-0.6,0.7-2,2.3-2,2.3s-0.4-1.7-0.7-3.1
		c-0.3-1.5-0.5-2-0.9-2s-0.6,0.2-0.6,0.2l-0.1-0.7c0,0,0.5-0.4,1.2-0.4s0.8,0.6,1.1,2.2c0.3,1.3,0.4,2,0.4,2s0.7-0.7,1-1.2
		c0.4-0.5,0.5-0.9,0.5-1.6c0-0.6-0.3-1.2-0.3-1.2l0.9-0.3c0,0,0.4,0.5,0.4,1.5C212.9,88.2,212.4,88.9,211.9,89.5L211.9,89.5z"/>
	<path id="path171" inkscape:connector-curvature="0" class="st0" d="M214.6,91.7h-0.9l0.9-5.7h0.9L214.6,91.7z M215.4,84.4
		c-0.5,0-0.5-0.4-0.5-0.6c0-0.5,0.3-0.8,0.7-0.8s0.5,0.2,0.5,0.6S215.8,84.4,215.4,84.4z"/>
	<path id="path173" inkscape:connector-curvature="0" class="st0" d="M220.7,91.7c-0.4,0-0.6-0.1-0.6-0.1c0.3-2,0.7-3.9,0.7-4.4
		c0-0.3,0-0.4-0.3-0.4c-0.9,0-2.2,1.4-2.4,2.4c-0.1,0.4-0.5,2.5-0.5,2.5h-0.9c0.1-0.9,0.8-4.5,1-5.7h1c-0.1,0.7-0.3,1.6-0.3,1.6
		s1.1-1.8,2.7-1.8c0.6,0,0.9,0.4,0.9,0.9s-0.4,2.6-0.7,4c0.4,0,1-0.3,1-0.3l0.3,0.6C222.4,91.2,221.8,91.7,220.7,91.7z"/>
	<path id="path175" inkscape:connector-curvature="0" class="st0" d="M228,88.7c-0.3,1.4-0.4,1.7-0.4,2.5c0,0.3,0.1,1,0.1,1.3
		c0,1-0.1,1.7-0.8,2.3c-0.5,0.4-1.2,0.7-2.1,0.7c-1.5,0-2.4-0.9-2.4-0.9l0.3-0.8c0,0,1,0.9,2.3,0.9c0.8,0,1.2-0.3,1.6-0.6
		c0.3-0.3,0.3-0.9,0.3-1.5s-0.1-1-0.1-1.3c0-0.7,0.1-0.9,0.1-0.9s-1,1.6-2.7,1.6c-0.7,0-0.9-0.6-0.9-1.5c0-1.3,0.5-3,1.6-3.9
		c0.5-0.4,1-0.5,1.6-0.5c0.8,0,1.2,0.4,1.2,0.4L228,86h0.6C228.7,86,228.3,87.3,228,88.7L228,88.7z M226.4,86.7
		c-0.4,0-0.8,0.2-1.1,0.5c-0.6,0.6-1,2-1,3.1c0,0.6,0.2,0.7,0.5,0.7c0.4,0,0.9-0.2,1.4-0.8c0.5-0.5,0.9-1.1,1-1.6l0.4-1.6
		C227.3,86.9,227,86.7,226.4,86.7L226.4,86.7z"/>
</g>
</svg>
