<?xml version="1.0" encoding="utf-8"?>
<!-- Generator: Adobe Illustrator 25.1.0, SVG Export Plug-In . SVG Version: 6.00 Build 0)  -->
<svg version="1.1" id="Laag_1" xmlns="http://www.w3.org/2000/svg" xmlns:xlink="http://www.w3.org/1999/xlink" x="0px" y="0px"
	 viewBox="0 0 1000 603" style="enable-background:new 0 0 1000 603;" xml:space="preserve">
<style type="text/css">
	.st0{fill:#FFFFFF;}
</style>
<g transform="translate(0.000000,603.000000) scale(0.100000,-0.100000)">
	<path class="st0" d="M4682,4325c-91-20-220-86-285-145c-53-49-121-138-133-177c-3-10,9,7,27,37c53,89,146,173,242,220
		c115,55,204,73,342,68c61-3,97-1,80,3C4904,4343,4748,4339,4682,4325z"/>
	<path class="st0" d="M5035,4302c89-34,138-63,197-120c67-64,92-101,125-186c13-34,21-47,18-31c-12,63-68,158-127,216
		c-59,59-171,123-233,134C4998,4318,5007,4312,5035,4302z"/>
	<path class="st0" d="M4728,4137c-51-15-63-22-121-76c-36-34-83-108-74-117c2-2,12,14,22,36c22,48,92,115,143,138
		c58,25,187,22,238-5c37-20,91-72,122-119c7-10,6-5-2,11c-18,38-80,97-126,120C4886,4148,4787,4153,4728,4137z"/>
	<path class="st0" d="M4235,3928c-9-29-18-78-20-108l-4-55l9,55c5,30,16,77,24,105c8,27,13,51,11,53S4244,3958,4235,3928z"/>
	<path class="st0" d="M5076,3955c35-106,44-222,24-295c-15-55-65-126-108-155c-21-14-64-29-98-35l-59-9l59,4c45,3,70,11,100,32
		c49,34,101,109,117,166c17,64,6,213-20,267C5079,3955,5073,3966,5076,3955z"/>
	<path class="st0" d="M4508,3889c-20-69-17-291,5-363c10-32,20-56,22-54s-3,26-12,53c-20,61-24,299-5,359c6,22,10,42,7,44
		C4523,3930,4516,3912,4508,3889z"/>
	<path class="st0" d="M5382,3905c0-16,2-22,5-12c2,9,2,23,0,30C5384,3929,5382,3922,5382,3905z"/>
	<path class="st0" d="M5393,3810c0-36,2-50,4-32c2,17,2,47,0,65C5395,3860,5393,3846,5393,3810z"/>
	<path class="st0" d="M4203,3715c0-22,2-30,4-17c2,12,2,30,0,40C4204,3747,4202,3737,4203,3715z"/>
	<path class="st0" d="M5377,3701c-23-130-125-253-259-309c-40-17-68-32-61-32c24,0,127,51,175,88c27,20,64,59,83,87
		c39,56,78,157,73,189C5386,3736,5381,3727,5377,3701z"/>
	<path class="st0" d="M4211,3640c-2-57,37-178,80-251c23-37,38-72,35-77s-35-26-70-47c-82-48-161-118-204-181l-34-49l33,40
		c58,70,137,141,204,179c35,21,69,44,75,51c12,14-1,45-46,115c-25,39-53,127-64,205C4214,3667,4212,3670,4211,3640z"/>
	<path class="st0" d="M4746,3464c-9-8-16-31-16-49c0-52,39-68,170-71l105-2l-106,7c-123,8-159,24-159,70c0,35,15,48,60,54l35,4
		l-37,1C4776,3479,4755,3474,4746,3464z"/>
	<path class="st0" d="M4540,3453c0-14,73-125,93-142c10-8,17-28,17-48c0-29-5-36-32-48c-18-8-26-14-18-15c9,0,26,7,38,16
		c32,22,30,77-5,112c-15,15-42,51-60,81S4540,3459,4540,3453z"/>
	<path class="st0" d="M1602,3288l3-83l102-3c118-3,117-5,111,103l-3,60l-108,3l-108,3L1602,3288z M1808,3288l-3-73l-97-3l-98-3v76
		v75h100h101L1808,3288z"/>
	<path class="st0" d="M3214,3357c-2-7-3-67-1-133l3-119l2,128l2,128l93-3l92-3l3-497c2-466,1-498-15-507c-41-21-226-44-327-39
		c-55,3-90,1-76-3c67-19,326,1,407,32l23,9v498c0,374-3,501-12,510C3391,3375,3221,3374,3214,3357z"/>
	<path class="st0" d="M5018,3353c7-3,16-2,19,1c4,3-2,6-13,5C5013,3359,5010,3356,5018,3353z"/>
	<path class="st0" d="M8340,3270v-80h110h110v80v80h-110h-110V3270z M8550,3270v-70h-100h-100v70v70h100h100V3270z"/>
	<path class="st0" d="M672,2833l3-498l108-3l107-3l-2,233l-3,233l-2-227l-3-228H780H680v490v490h100h100l3-222l2-223l3,228l2,227
		H780H670L672,2833z"/>
	<path class="st0" d="M1070,3118c-79-116-139-209-134-205c5,3,70,96,144,206l135,201h113c61,0,112-3,112-6s-19-34-43-68
		c-24-33-96-136-160-227c-64-92-117-172-117-178c0-12,317-491,325-491c3,0-40,69-96,153c-56,83-128,192-160,240c-33,49-59,93-59,99
		c0,5,67,105,148,222c82,116,157,223,167,239l17,27h-124h-125L1070,3118z"/>
	<path class="st0" d="M6330,3323c-37-6-122-34-117-39c2-2,24,3,48,12c24,8,91,19,149,23c104,8,104,8,25,8
		C6391,3327,6344,3325,6330,3323z"/>
	<path class="st0" d="M6600,3304c47-7,91-13,98-14c8,0,12-22,12-76v-75l-167,6c-163,6-169,6-213-17c-54-28-85-71-99-139
		c-12-53-13-293-2-344c3-16,6,56,6,160c0,183,1,192,25,240c19,38,36,56,70,73c44,23,50,23,218,17l173-7l-3,84l-3,83l-65,12
		c-36,7-81,12-100,12C6531,3318,6553,3312,6600,3304z"/>
	<path class="st0" d="M6175,3268c-28-15-85-69-97-93c-6-11,9,0,33,25s55,53,69,62C6208,3281,6205,3285,6175,3268z"/>
	<path class="st0" d="M5098,3210c-110-19-221-95-270-187c-59-109-61-304-4-303c6,0,3,5-6,10c-24,14-33,107-18,183
		c31,160,143,262,317,289c38,5,70,12,72,14C5195,3222,5152,3219,5098,3210z"/>
	<path class="st0" d="M5255,3195c75-17,92-17,40,0c-22,8-53,13-70,13C5206,3208,5218,3203,5255,3195z"/>
	<path class="st0" d="M4504,3164c-123-73-200-175-234-308c-52-203,9-409,160-550c114-105,195-131,384-123c175,7,276,42,377,134
		c45,41,105,135,113,178c3,17,3,23,0,15c-48-114-99-181-176-231c-96-61-164-80-314-86c-186-8-269,18-378,118
		c-105,96-176,257-176,400c0,87,32,210,73,277c40,68,115,137,193,179c32,18,54,33,48,33C4569,3200,4537,3184,4504,3164z"/>
	<path class="st0" d="M5388,3149c124-71,196-188,222-364c6-40,8-43,9-16c3,77-50,216-112,295c-30,38-139,116-161,116
		C5340,3180,5359,3166,5388,3149z"/>
	<path class="st0" d="M6049,3123c-35-91-41-146-37-337c4-151,8-201,22-239c10-26,20-46,22-44s-4,24-13,48c-15,37-18,78-18,264
		c1,201,2,225,22,278c12,31,20,57,17,57C6062,3150,6055,3138,6049,3123z"/>
	<path class="st0" d="M2264,3092c-28-10-63-28-79-40c-37-29-25-28,20,2c62,43,210,58,290,31l20-7l-20,13
		C2461,3112,2323,3113,2264,3092z"/>
	<path class="st0" d="M2968,3096c-58-16-119-55-151-98c-29-40-57-110-56-141c0-12,6-2,13,23c42,158,159,230,353,218c43-3,69-2,58,3
		C3154,3113,3020,3110,2968,3096z"/>
	<path class="st0" d="M1605,3088c-3-7-4-180-3-383l3-370l103-3l102-3l-2,383l-3,383l-98,3C1635,3100,1608,3097,1605,3088z
		 M1800,2715v-375h-95h-95v375v375h95h95V2715z"/>
	<path class="st0" d="M1965,3088c-3-7-4-180-3-383l3-370l103-3l102-3l-2,283l-3,283l-2-277l-3-278h-95h-95v375v375h89
		c77,0,90-2,94-17c3-14,4-13,3,2c-1,18-9,20-94,23C1994,3100,1968,3097,1965,3088z"/>
	<path class="st0" d="M7061,3079c-18-6-31-12-29-14c2-3,20,0,39,5c44,13,174,13,221,0c72-20,130-70,167-142c31-61,35-78,39-173
		l5-105l-229-3l-229-2l234-3l234-2l-5,108c-6,161-52,248-160,307c-47,26-64,30-153,32C7140,3088,7080,3085,7061,3079z"/>
	<path class="st0" d="M9020,3081c-36-11-113-52-107-57c2-2,26,8,53,23c41,23,64,28,141,31c115,5,169-16,208-81c14-23,25-37,25-31
		c0,26-60,92-99,108C9198,3091,9067,3095,9020,3081z"/>
	<path class="st0" d="M2550,3043c19-22,37-38,38-37c7,5-32,52-53,65C2524,3078,2531,3065,2550,3043z"/>
	<path class="st0" d="M7630,3000v-80l153,2l152,2l-147,3l-148,4v69v70l268-2l267-3l3-69c3-80,15-60-172-314c-69-94-126-175-126-179
		c0-7,89,112,232,310l78,109v67c0,39-5,72-12,79c-9,9-85,12-280,12h-268V3000z"/>
	<path class="st0" d="M8350,2695v-385h100c55,0,100,3,100,8c0,4-43,6-95,4l-95-3v375v375l98,4l97,3l-102,2l-103,2V2695z"/>
	<path class="st0" d="M8705,3067c-3-6-4-179-3-382l3-370h100h100v280v280l-2-278l-3-278l-93,3l-92,3l-3,373l-2,372h89
		c85,0,90-1,94-22c4-20,4-19,6,5l1,27h-95C8737,3080,8708,3076,8705,3067z"/>
	<path class="st0" d="M6968,3032c-52-38-108-118-108-154c0-7,11,10,24,37c23,48,64,94,116,128c13,10,20,17,15,17
		C7009,3059,6988,3047,6968,3032z"/>
	<path class="st0" d="M8545,2700c0-201,1-283,2-183c2,101,2,265,0,366C8546,2983,8545,2901,8545,2700z"/>
	<path class="st0" d="M3986,2982c-56-110-75-255-52-390c15-86,55-204,78-227c5-5-5,22-21,62c-76,178-74,399,5,555c13,26,22,48,19,48
		C4013,3030,3999,3008,3986,2982z"/>
	<path class="st0" d="M2596,2970c4-14,10-158,14-320l7-295l-1,300c-1,231-4,305-14,320C2589,2994,2589,2993,2596,2970z"/>
	<path class="st0" d="M5030,2965c-19-9-48-28-64-43c-34-32-76-116-76-154c0-15-8-32-17-37c-10-6-13-11-7-11c18,0,34,23,34,50
		c0,34,42,120,71,147c59,54,153,68,226,32c48-23,76-58,105-127c12-31,17-36,13-17c-10,50-54,114-96,142
		C5168,2980,5083,2988,5030,2965z"/>
	<path class="st0" d="M2223,2930c-24-10-43-21-43-24s19,4,43,14c54,25,127,26,157,2c12-9,25-33,30-52c7-33,8-33,9-7c1,19-9,38-28,58
		c-25,24-38,29-78,29C2287,2950,2246,2941,2223,2930z"/>
	<path class="st0" d="M3009,2923c-50-42-59-77-59-218s9-176,59-218c29-24,41-27,106-27c41,0,76,3,78,8c3,4-29,6-72,4
		c-67-3-80-1-105,19c-46,36-56,74-56,214c0,196,21,227,158,236l87,6l-82,1C3048,2950,3039,2948,3009,2923z"/>
	<path class="st0" d="M9348,2693c1-142,4-280,5-308c2-27,4,78,4,235c1,157-2,295-5,308C9348,2941,9346,2835,9348,2693z"/>
	<path class="st0" d="M7112,2920c-41-25-72-76-71-115c1-29,1-29,8,5c10,51,28,78,64,100c66,41,146,17,178-53c10-23,19-35,19-27
		c0,26-38,78-69,95C7200,2946,7152,2944,7112,2920z"/>
	<path class="st0" d="M3214,2705c0-126,2-177,3-112c2,65,2,168,0,230C3216,2885,3214,2832,3214,2705z"/>
	<path class="st0" d="M8963,2910c-24-10-43-21-43-24s19,4,43,14c23,11,64,20,93,20c42,0,55-5,75-26l24-26l3-279l3-279h100
		c54,0,99,3,99,8c0,4-43,6-95,4l-95-3v243c0,279-3,309-38,343c-20,20-34,25-76,25C9027,2930,8986,2921,8963,2910z"/>
	<path class="st0" d="M7908,2863c-19-27-92-126-161-221c-70-96-127-178-127-183c0-6,20,19,45,55c24,36,95,134,157,218
		c122,163,132,178,125,178C7944,2910,7926,2889,7908,2863z"/>
	<path class="st0" d="M909,2883c-13-16-12-17,4-4c9,7,17,15,17,17C930,2904,922,2899,909,2883z"/>
	<path class="st0" d="M6844,2804c-3-30-4-105-2-165c4-100,7-115,39-176c59-117,156-164,333-161l101,1l-120,7c-100,5-129,10-175,31
		c-69,33-106,69-139,139c-25,52-26,63-26,218c0,89-1,162-2,162S6848,2835,6844,2804z"/>
	<path class="st0" d="M2422,2583l-2-253h100c55,0,100,3,100,8c0,4-43,6-95,4l-95-3l-3,248l-2,248L2422,2583z"/>
	<path class="st0" d="M2754,2705c0-71,1-99,3-62s2,96,0,130S2754,2777,2754,2705z"/>
	<path class="st0" d="M6507,2823c-3-5,42-7,99-5l104,3v-240v-241l-40-6c-23-4-39-9-36-11c3-3,23-2,45,2l41,7v249v249h-104
		C6558,2830,6509,2827,6507,2823z"/>
	<path class="st0" d="M7312,2785c0-16,2-22,5-12c2,9,2,23,0,30C7314,2809,7312,2802,7312,2785z"/>
	<path class="st0" d="M1065,2538l127-208l137,2l136,2l-136,3l-135,4l-19,32c-53,91-258,417-262,417C910,2790,994,2652,1065,2538z"/>
	<path class="st0" d="M5322,2750c-1-14,3-43,7-65c6-26,9-31,9-15c1,14-3,43-7,65C5325,2761,5322,2766,5322,2750z"/>
	<path class="st0" d="M7113,2753c37-2,96-2,130,0s4,3-68,3C7104,2756,7076,2755,7113,2753z"/>
	<path class="st0" d="M5622,2705c0-16,2-22,5-12c2,9,2,23,0,30C5624,2729,5622,2722,5622,2705z"/>
	<path class="st0" d="M5611,2639c-2-58-37-182-69-246c-85-167-222-287-412-360c-47-18-79-32-73-33c25,0,147,51,204,86
		c137,83,230,184,295,318c37,77,68,199,61,242C5613,2672,5613,2671,5611,2639z"/>
	<path class="st0" d="M5321,2619c0-15-3-42-6-60l-5-34l11,34c5,18,8,45,6,60l-4,26L5321,2619z"/>
	<path class="st0" d="M6240,2601c0-22,40-75,75-99c26-19,44-22,111-20l79,1l-87,6c-79,5-90,9-119,36c-17,17-37,44-45,60
		C6247,2602,6241,2609,6240,2601z"/>
	<path class="st0" d="M7045,2575c3-30,13-48,40-72c19-18,40-33,47-33s-1,9-19,20c-34,20-51,46-65,95C7042,2611,7041,2609,7045,2575z
		"/>
	<path class="st0" d="M2761,2550c-2-38,52-143,90-174c35-30,98-61,106-53c2,3-10,10-28,16c-75,26-135,102-158,198
		C2764,2566,2762,2569,2761,2550z"/>
	<path class="st0" d="M6077,2461c26-49,97-107,162-132c46-18,79-23,181-25l125-2l-125,7c-93,6-140,13-183,30c-57,22-121,75-160,131
		C6061,2492,6061,2492,6077,2461z"/>
	<path class="st0" d="M7418,2473l52-4v-64v-63l-77-15c-43-8-64-15-48-15c17,0,53,5,80,11l50,12l3,73l3,72l-58-2l-58-2L7418,2473z"/>
	<path class="st0" d="M8182,2403l-2-83h-269c-205,0-271,3-279,13c-6,7-12,35-15,62l-3,50l-2-52c-3-85-12-83,299-83
		c216,0,271,3,275,13c3,8,3,47,1,88l-3,74L8182,2403z"/>
	<path class="st0" d="M7203,2463c32-2,81-2,110,0s3,3-58,3C7195,2466,7171,2465,7203,2463z"/>
	<path class="st0" d="M4037,2320c10-19,52-69,93-110c161-163,380-250,630-250c94,0,288,26,277,37c-3,2-45-3-93-13
		c-117-22-315-15-429,15c-198,53-355,161-478,331C4020,2354,4020,2354,4037,2320z"/>
	<path class="st0" d="M6568,2313c12-2,30-2,40,0c9,3-1,5-23,4C6563,2317,6555,2315,6568,2313z"/>
</g>
</svg>
