<?xml version="1.0" encoding="utf-8"?>
<!-- Generator: Adobe Illustrator 25.1.0, SVG Export Plug-In . SVG Version: 6.00 Build 0)  -->
<svg version="1.1" id="Laag_1" xmlns="http://www.w3.org/2000/svg" xmlns:xlink="http://www.w3.org/1999/xlink" x="0px" y="0px"
	 viewBox="0 0 400 156" style="enable-background:new 0 0 400 156;" xml:space="preserve">
<style type="text/css">
	.st0{fill:#FFFFFF;}
	.st1{fill:#18CCA3;}
</style>
<g transform="translate(0.000000,156.000000) scale(0.100000,-0.100000)">
	<path class="st0" d="M2237.1,895.5v-335h55h55v106c0,104,0,105,23,102c15-2,43-34,91-105l70-103h63h64l-77,113
		c-42,61-83,118-90,126c-11,12-1,28,59,100c113,135,109,121,39,121h-61l-52-62c-86-105-99-118-114-118c-13,0-15,29-15,195v195h-55
		h-55V895.5z"/>
	<path class="st0" d="M1874.1,1207.5c-51-16-106-62-123-103c-19-45-18-118,2-160c22-45,58-70,146-99c100-34,115-43,127-76
		c22-62-27-119-102-119c-19,0-62,14-95,31c-68,35-79,33-108-23c-14-27-13-28,25-53c176-117,400-31,401,153c0,93-47,142-180,187
		c-116,39-147,83-97,140c34,39,83,43,151,12c31-15,62-24,70-21c7,3,20,20,29,39l17,35l-38,24
		C2035.1,1217.5,1947.1,1229.5,1874.1,1207.5z"/>
	<path class="st0" d="M2909.1,1013.5c-19-9-41-27-49-40c-21-32-31-29-35,10c-3,31-5,32-50,35l-48,3v-230v-231h55h55v146v146l35,35
		c33,33,39,35,81,30c41-4,46-2,55,20c17,44,11,80-13,87C2960.1,1033.5,2945.1,1031.5,2909.1,1013.5z"/>
	<path class="st0" d="M3067.1,953.5c16-38,56-131,89-207c34-76,61-145,61-153s-18-53-40-100l-39-84l56,3l57,3l128,300
		c70,165,128,301,128,303s-25,2-56,0l-57-3l-57-147l-56-148l-60,148l-60,147l-62,3l-62,3L3067.1,953.5z"/>
	<path class="st0" d="M3610.1,790.5l90-230h52h52l90,228l91,227l-45,3c-25,2-51,1-58-1c-6-3-38-79-70-169l-59-163l-52,153
		c-29,84-58,160-64,168c-8,9-31,14-65,14h-52L3610.1,790.5z"/>
</g>
<path class="st1" d="M42.2,155.5v-22.6l-6.4-3.6c-8-4.6-14.3-11.6-17.8-20.2c-0.6-1.5-1.2-3-2-4.5h0c-0.5-1.1-0.8-2.3-0.8-3.5V44.3
	c0-7.8,2-15.5,5.8-22.3l0,0c1.5-2.7,3.3-5.2,5.4-7.5l0,0C31.5,8.8,38,4.5,45.2,2l0,0c2.7-1,5.5-1.5,8.3-1.5h55.1
	c4.3,0,12.8,0.2,16.5,2.5l0,0c12.4,7.8,23.1,20.3,23,35.6l0,0c0.1,0.2,0.1,0.4,0.1,0.6v37.3v9.4c0,14.8-1.7,32.5-15.3,40.2l-0.8,0.5
	c-0.5,0.5-0.3,0.4-0.9,0.6l0,0c-9.3,3.7-19.1,5.6-29.1,5.6H76.2L42.2,155.5z"/>
<path class="st0" d="M76.1,37.8C71,39.4,65.5,44,63.8,48.1c-1.9,4.5-1.8,11.8,0.2,16c2.2,4.5,5.8,7,14.6,9.9
	c10,3.4,11.5,4.3,12.7,7.6c2.2,6.2-2.7,11.9-10.2,11.9c-1.9,0-6.2-1.4-9.5-3.1c-6.8-3.5-7.9-3.3-10.8,2.3c-1.4,2.7-1.3,2.8,2.5,5.3
	c17.6,11.7,40,3.1,40.1-15.3c0-9.3-4.7-14.2-18-18.7c-11.6-3.9-14.7-8.3-9.7-14c3.4-3.9,8.3-4.3,15.1-1.2c3.1,1.5,6.2,2.4,7,2.1
	c0.7-0.3,2-2,2.9-3.9l1.7-3.5l-3.8-2.4C92.2,36.8,83.4,35.6,76.1,37.8z"/>
</svg>
